<svg xmlns="http://www.w3.org/2000/svg" viewBox="559.56 949.26 1308.30 625.58" width="1308" height="626">
  <!-- One circuit centreline, extracted from the source map named in ATTRIBUTION.md.
       Sprint fits and recolours this path at runtime; the stroke here is only so the
       file is legible on its own. -->
  <path fill="none" stroke="#111111" stroke-width="11.220"
        stroke-linecap="round" stroke-linejoin="round"
        d="M 1579.4144,988.41146 C 1589.7735,988.66203 1600.0504,989.27848 1610.0197,990.87561 C 1633.266,994.59978 1656.8427,997.97695 1678.1168,1005.6932 C 1700.1965,1013.7016 1721.9781,1025.119 1741.3703,1038.4294 C 1756.4911,1048.808 1770.4018,1062.4208 1781.9464,1076.8969 C 1793.5525,1091.4502 1802.9908,1108.6463 1811.0431,1125.9318 C 1818.407,1141.7397 1824.7094,1158.5591 1827.8158,1175.2921 C 1831.1327,1193.1588 1831.1336,1212.3332 1830.5206,1231.1244 C 1830.047,1245.6476 1828.4009,1260.4242 1824.5985,1274.0868 C 1820.1597,1290.0367 1812.7489,1305.7141 1805.3506,1321.2887 C 1799.5148,1333.5735 1793.7942,1345.9205 1785.881,1355.7626 C 1772.0582,1372.9551 1756.6306,1389.7187 1739.5587,1403.1183 C 1723.5175,1415.709 1704.4186,1425.4113 1685.37,1434.6216 C 1670.9896,1441.5747 1635.2692,1445.7501 1605.5891,1441.3387 C 1590.7492,1439.1329 1577.332,1434.8098 1568.6071,1428.5913 C 1559.8822,1422.3728 1555.66,1415.1271 1557.2601,1404.183 C 1559.1803,1391.05 1573.844,1372.3272 1594.5924,1352.451 C 1615.3409,1332.5749 1641.7294,1311.1588 1665.9789,1289.9195 C 1690.2281,1268.6801 1712.3548,1247.7543 1724.7554,1227.8937 C 1730.9556,1217.9635 1734.8293,1208.1535 1734.7243,1198.4713 C 1734.619,1188.7893 1730.1258,1179.5465 1721.2361,1172.1353 C 1715.0388,1166.969 1706.7874,1165.8398 1698.2541,1167.2623 C 1689.7207,1168.6846 1680.4907,1172.5061 1670.6127,1177.8741 C 1650.8566,1188.61 1628.5388,1205.6868 1606.6974,1223.7075 C 1584.8557,1241.7281 1563.5304,1260.7057 1546.2728,1275.0962 C 1537.644,1282.2914 1530.0353,1288.3521 1523.9991,1292.4968 C 1517.9627,1296.6418 1512.882,1298.4386 1512.6011,1298.4401 C 1444.5,1298.8038 1359.5247,1295.0256 1290.6114,1296.6006 C 1256.1547,1297.3882 1225.7337,1299.4755 1203.118,1304.2553 C 1191.81,1306.6451 1182.4298,1309.6738 1175.2822,1313.8621 C 1168.1346,1318.0504 1162.9257,1323.8686 1161.9495,1331.2303 C 1160.02,1345.7781 1165.5034,1357.2308 1175.7183,1364.0126 C 1185.9334,1370.7943 1200.0773,1373.7257 1216.8645,1375.2045 C 1249.2928,1378.0613 1324.8053,1376.0963 1333.4529,1377.2663 C 1350.7599,1379.6079 1366.431,1388.2186 1383.6987,1399.4586 C 1388.713,1402.7224 1397.5573,1405.0706 1408.3244,1407.4351 C 1419.0916,1409.7996 1431.7308,1412.1229 1444.1191,1415.0271 C 1456.5072,1417.9311 1468.6378,1421.4269 1478.2969,1426.112 C 1487.9562,1430.7969 1495.0898,1436.6409 1497.7707,1444.1223 C 1500.5084,1451.7618 1499.0901,1459.9573 1495.2795,1468.1313 C 1491.4691,1476.3053 1485.2546,1484.396 1478.548,1491.5749 C 1465.1346,1505.9329 1449.843,1516.6839 1447.9898,1517.9955 C 1433.3708,1528.3417 1419.3509,1535.537 1408.9467,1535.9883 C 1277.0762,1541.7077 1150.6204,1532.2616 1017.5727,1531.1829 C 1010.1447,1531.1227 1002.5752,1531.0631 995.6828,1528.962 C 954.07197,1516.2786 912.37729,1502.6083 871.67179,1486.8072 C 835.33209,1472.7007 800.4564,1454.9948 765.00673,1439.6354 C 734.23956,1426.3048 703.63088,1410.9511 676.827,1392.007 C 661.54039,1381.2029 648.4336,1365.4812 637.28475,1349.5948 C 626.86582,1334.7484 618.76154,1317.3761 612.39098,1299.9744 C 605.35599,1280.7579 599.41426,1260.4912 597.42363,1240.6552 C 595.5036,1221.523 597.01913,1201.1638 600.50964,1181.9317 C 604.29967,1161.0491 610.1417,1139.7976 619.15416,1120.9923 C 629.35121,1099.7151 642.7837,1078.763 658.30638,1061.2709 C 669.9047,1048.2011 685.64722,1037.5391 701.40466,1028.2161 C 721.42288,1016.3721 742.93439,1005.8712 764.74101,998.46707 C 780.84307,992.99984 798.7597,991.08102 816.54601,989.13106 C 835.88938,987.01043 855.67904,986.71478 875.5047,986.40857 C 917.80718,985.75516 944.7653,987.80291 962.50956,991.12069 C 980.25382,994.43847 988.57468,998.84233 994.65916,1003.3441 C 1000.7437,1007.8457 1005.0088,1013.2134 1013.5079,1017.4943 C 1022.007,1021.7755 1034.0538,1024.4638 1055.5042,1024.5809 C 1071.7538,1024.6695 1082.1907,1022.2922 1089.7902,1018.382 C 1097.3895,1014.4717 1101.7533,1009.1667 1105.8144,1004.7365 C 1109.8757,1000.3066 1113.6085,996.58499 1121.0266,993.63466 C 1128.4445,990.68433 1139.7699,988.63941 1158.3694,988.97988 C 1267.6355,990.98005 1511.505,987.89864 1569.0402,988.25274 C 1572.5051,988.27406 1575.9613,988.32793 1579.4144,988.41146 z"/>
</svg>
